<mxfile host="65bd71144e">
    <diagram id="P8cqFEAjnScb-ysbPOtO" name="Page-1">
        <mxGraphModel dx="900" dy="489" grid="0" gridSize="10" guides="1" tooltips="1" connect="1" arrows="1" fold="1" page="1" pageScale="1" pageWidth="1169" pageHeight="1654" background="#FFFFFF" math="0" shadow="1">
            <root>
                <mxCell id="0"/>
                <mxCell id="1" parent="0"/>
                <mxCell id="-rqGWek1G1h2NRf4Z1o3-77" style="edgeStyle=none;rounded=0;orthogonalLoop=1;jettySize=auto;html=1;entryX=0;entryY=0.5;entryDx=0;entryDy=0;fontFamily=Jetbrains Mono;fontSize=21;fontColor=#1A1A1A;endArrow=none;endFill=0;strokeWidth=2;strokeColor=#1A1A1A;" parent="1" source="-rqGWek1G1h2NRf4Z1o3-1" target="-rqGWek1G1h2NRf4Z1o3-53" edge="1">
                    <mxGeometry relative="1" as="geometry"/>
                </mxCell>
                <mxCell id="-rqGWek1G1h2NRf4Z1o3-79" value="&lt;font style=&quot;font-size: 12px;&quot;&gt;0,N&lt;/font&gt;" style="edgeLabel;html=1;align=center;verticalAlign=middle;resizable=0;points=[];fontSize=14;fontFamily=Jetbrains Mono;fontColor=#1A1A1A;labelBackgroundColor=none;" parent="-rqGWek1G1h2NRf4Z1o3-77" vertex="1" connectable="0">
                    <mxGeometry x="-0.7632" relative="1" as="geometry">
                        <mxPoint x="9" y="-15" as="offset"/>
                    </mxGeometry>
                </mxCell>
                <mxCell id="-rqGWek1G1h2NRf4Z1o3-1" value="Utilisateur" style="swimlane;fontStyle=1;childLayout=stackLayout;horizontal=1;startSize=30;horizontalStack=0;resizeParent=1;resizeParentMax=0;resizeLast=0;collapsible=1;marginBottom=0;strokeWidth=2;rounded=1;labelBackgroundColor=none;fontFamily=Jetbrains Mono;fontSize=15;fillColor=#1ba1e2;strokeColor=#006EAF;fontColor=#1A1A1A;swimlaneFillColor=none;" parent="1" vertex="1">
                    <mxGeometry x="220.75" y="50" width="150" height="240" as="geometry"/>
                </mxCell>
                <mxCell id="-rqGWek1G1h2NRf4Z1o3-2" value="id_u" style="text;align=left;verticalAlign=middle;spacingLeft=4;spacingRight=4;overflow=hidden;points=[[0,0.5],[1,0.5]];portConstraint=eastwest;rotatable=0;fontFamily=Jetbrains Mono;fontSize=13;fontStyle=5;fontColor=#1A1A1A;" parent="-rqGWek1G1h2NRf4Z1o3-1" vertex="1">
                    <mxGeometry y="30" width="150" height="30" as="geometry"/>
                </mxCell>
                <mxCell id="-rqGWek1G1h2NRf4Z1o3-3" value="prenom_u" style="text;align=left;verticalAlign=middle;spacingLeft=4;spacingRight=4;overflow=hidden;points=[[0,0.5],[1,0.5]];portConstraint=eastwest;rotatable=0;fontFamily=Jetbrains Mono;fontSize=13;fontColor=#1A1A1A;" parent="-rqGWek1G1h2NRf4Z1o3-1" vertex="1">
                    <mxGeometry y="60" width="150" height="30" as="geometry"/>
                </mxCell>
                <mxCell id="-rqGWek1G1h2NRf4Z1o3-4" value="nom_u" style="text;align=left;verticalAlign=middle;spacingLeft=4;spacingRight=4;overflow=hidden;points=[[0,0.5],[1,0.5]];portConstraint=eastwest;rotatable=0;fontFamily=Jetbrains Mono;fontSize=13;fontColor=#1A1A1A;" parent="-rqGWek1G1h2NRf4Z1o3-1" vertex="1">
                    <mxGeometry y="90" width="150" height="30" as="geometry"/>
                </mxCell>
                <mxCell id="-rqGWek1G1h2NRf4Z1o3-5" value="date_naissance" style="text;align=left;verticalAlign=middle;spacingLeft=4;spacingRight=4;overflow=hidden;points=[[0,0.5],[1,0.5]];portConstraint=eastwest;rotatable=0;fontFamily=Jetbrains Mono;fontSize=13;fontColor=#1A1A1A;" parent="-rqGWek1G1h2NRf4Z1o3-1" vertex="1">
                    <mxGeometry y="120" width="150" height="30" as="geometry"/>
                </mxCell>
                <mxCell id="-rqGWek1G1h2NRf4Z1o3-6" value="email_u" style="text;align=left;verticalAlign=middle;spacingLeft=4;spacingRight=4;overflow=hidden;points=[[0,0.5],[1,0.5]];portConstraint=eastwest;rotatable=0;fontFamily=Jetbrains Mono;fontSize=13;fontColor=#1A1A1A;" parent="-rqGWek1G1h2NRf4Z1o3-1" vertex="1">
                    <mxGeometry y="150" width="150" height="30" as="geometry"/>
                </mxCell>
                <mxCell id="-rqGWek1G1h2NRf4Z1o3-7" value="sexe_u" style="text;align=left;verticalAlign=middle;spacingLeft=4;spacingRight=4;overflow=hidden;points=[[0,0.5],[1,0.5]];portConstraint=eastwest;rotatable=0;fontFamily=Jetbrains Mono;fontSize=13;fontColor=#1A1A1A;" parent="-rqGWek1G1h2NRf4Z1o3-1" vertex="1">
                    <mxGeometry y="180" width="150" height="30" as="geometry"/>
                </mxCell>
                <mxCell id="-rqGWek1G1h2NRf4Z1o3-8" value="mdp_u" style="text;align=left;verticalAlign=middle;spacingLeft=4;spacingRight=4;overflow=hidden;points=[[0,0.5],[1,0.5]];portConstraint=eastwest;rotatable=0;fontFamily=Jetbrains Mono;fontSize=13;fontColor=#1A1A1A;" parent="-rqGWek1G1h2NRf4Z1o3-1" vertex="1">
                    <mxGeometry y="210" width="150" height="30" as="geometry"/>
                </mxCell>
                <mxCell id="-rqGWek1G1h2NRf4Z1o3-9" value="Domicile" style="swimlane;fontStyle=1;childLayout=stackLayout;horizontal=1;startSize=30;horizontalStack=0;resizeParent=1;resizeParentMax=0;resizeLast=0;collapsible=1;marginBottom=0;strokeWidth=2;rounded=1;labelBackgroundColor=none;fontFamily=Jetbrains Mono;fontSize=15;fillColor=#1ba1e2;strokeColor=#006EAF;fontColor=#1A1A1A;" parent="1" vertex="1">
                    <mxGeometry x="733.25" y="470" width="150" height="120" as="geometry"/>
                </mxCell>
                <mxCell id="-rqGWek1G1h2NRf4Z1o3-10" value="id_domicile" style="text;strokeColor=none;fillColor=none;align=left;verticalAlign=middle;spacingLeft=4;spacingRight=4;overflow=hidden;points=[[0,0.5],[1,0.5]];portConstraint=eastwest;rotatable=0;fontFamily=Jetbrains Mono;fontSize=13;fontStyle=5;fontColor=#1A1A1A;" parent="-rqGWek1G1h2NRf4Z1o3-9" vertex="1">
                    <mxGeometry y="30" width="150" height="30" as="geometry"/>
                </mxCell>
                <mxCell id="-rqGWek1G1h2NRf4Z1o3-11" value="annee_construction" style="text;strokeColor=none;fillColor=none;align=left;verticalAlign=middle;spacingLeft=4;spacingRight=4;overflow=hidden;points=[[0,0.5],[1,0.5]];portConstraint=eastwest;rotatable=0;fontFamily=Jetbrains Mono;fontSize=13;fontColor=#1A1A1A;" parent="-rqGWek1G1h2NRf4Z1o3-9" vertex="1">
                    <mxGeometry y="60" width="150" height="30" as="geometry"/>
                </mxCell>
                <mxCell id="-rqGWek1G1h2NRf4Z1o3-12" value="superficie" style="text;strokeColor=none;fillColor=none;align=left;verticalAlign=middle;spacingLeft=4;spacingRight=4;overflow=hidden;points=[[0,0.5],[1,0.5]];portConstraint=eastwest;rotatable=0;fontFamily=Jetbrains Mono;fontSize=13;fontColor=#1A1A1A;" parent="-rqGWek1G1h2NRf4Z1o3-9" vertex="1">
                    <mxGeometry y="90" width="150" height="30" as="geometry"/>
                </mxCell>
                <mxCell id="-rqGWek1G1h2NRf4Z1o3-74" style="edgeStyle=none;rounded=0;orthogonalLoop=1;jettySize=auto;html=1;entryX=0;entryY=0.5;entryDx=0;entryDy=0;fontFamily=Jetbrains Mono;fontSize=21;fontColor=#1A1A1A;endArrow=none;endFill=0;strokeWidth=2;strokeColor=#1A1A1A;" parent="1" source="-rqGWek1G1h2NRf4Z1o3-17" target="-rqGWek1G1h2NRf4Z1o3-37" edge="1">
                    <mxGeometry relative="1" as="geometry"/>
                </mxCell>
                <mxCell id="-rqGWek1G1h2NRf4Z1o3-17" value="Membre" style="swimlane;fontStyle=1;childLayout=stackLayout;horizontal=1;startSize=30;horizontalStack=0;resizeParent=1;resizeParentMax=0;resizeLast=0;collapsible=1;marginBottom=0;strokeWidth=2;rounded=1;labelBackgroundColor=none;fontFamily=Jetbrains Mono;fontSize=15;fillColor=#1ba1e2;strokeColor=#006EAF;fontColor=#1A1A1A;" parent="1" vertex="1">
                    <mxGeometry x="135" y="480" width="150" height="90" as="geometry"/>
                </mxCell>
                <mxCell id="-rqGWek1G1h2NRf4Z1o3-18" value="id_m" style="text;strokeColor=none;fillColor=none;align=left;verticalAlign=middle;spacingLeft=4;spacingRight=4;overflow=hidden;points=[[0,0.5],[1,0.5]];portConstraint=eastwest;rotatable=0;fontFamily=Jetbrains Mono;fontSize=13;fontStyle=5;fontColor=#1A1A1A;" parent="-rqGWek1G1h2NRf4Z1o3-17" vertex="1">
                    <mxGeometry y="30" width="150" height="30" as="geometry"/>
                </mxCell>
                <mxCell id="-rqGWek1G1h2NRf4Z1o3-19" value="lien_parente" style="text;strokeColor=none;fillColor=none;align=left;verticalAlign=middle;spacingLeft=4;spacingRight=4;overflow=hidden;points=[[0,0.5],[1,0.5]];portConstraint=eastwest;rotatable=0;fontFamily=Jetbrains Mono;fontSize=13;fontColor=#1A1A1A;" parent="-rqGWek1G1h2NRf4Z1o3-17" vertex="1">
                    <mxGeometry y="60" width="150" height="30" as="geometry"/>
                </mxCell>
                <mxCell id="-rqGWek1G1h2NRf4Z1o3-75" style="edgeStyle=none;rounded=0;orthogonalLoop=1;jettySize=auto;html=1;entryX=0;entryY=0.5;entryDx=0;entryDy=0;fontFamily=Jetbrains Mono;fontSize=21;fontColor=#1A1A1A;endArrow=none;endFill=0;strokeWidth=2;strokeColor=#1A1A1A;" parent="1" source="-rqGWek1G1h2NRf4Z1o3-21" target="-rqGWek1G1h2NRf4Z1o3-37" edge="1">
                    <mxGeometry relative="1" as="geometry"/>
                </mxCell>
                <mxCell id="-rqGWek1G1h2NRf4Z1o3-21" value="Co_proprietaire" style="swimlane;fontStyle=1;childLayout=stackLayout;horizontal=1;startSize=30;horizontalStack=0;resizeParent=1;resizeParentMax=0;resizeLast=0;collapsible=1;marginBottom=0;strokeWidth=2;rounded=1;labelBackgroundColor=none;fontFamily=Jetbrains Mono;fontSize=15;fillColor=#1ba1e2;strokeColor=#006EAF;fontColor=#1A1A1A;" parent="1" vertex="1">
                    <mxGeometry x="325" y="480" width="150" height="60" as="geometry"/>
                </mxCell>
                <mxCell id="-rqGWek1G1h2NRf4Z1o3-22" value="id_co_pro" style="text;strokeColor=none;fillColor=none;align=left;verticalAlign=middle;spacingLeft=4;spacingRight=4;overflow=hidden;points=[[0,0.5],[1,0.5]];portConstraint=eastwest;rotatable=0;fontFamily=Jetbrains Mono;fontSize=13;fontStyle=5;fontColor=#1A1A1A;" parent="-rqGWek1G1h2NRf4Z1o3-21" vertex="1">
                    <mxGeometry y="30" width="150" height="30" as="geometry"/>
                </mxCell>
                <mxCell id="-rqGWek1G1h2NRf4Z1o3-25" value="Proprietaire" style="swimlane;fontStyle=1;childLayout=stackLayout;horizontal=1;startSize=30;horizontalStack=0;resizeParent=1;resizeParentMax=0;resizeLast=0;collapsible=1;marginBottom=0;strokeWidth=2;rounded=1;labelBackgroundColor=none;fontFamily=Jetbrains Mono;fontSize=15;fillColor=#1ba1e2;strokeColor=#006EAF;fontColor=#1A1A1A;" parent="1" vertex="1">
                    <mxGeometry x="527" y="333" width="150" height="60" as="geometry"/>
                </mxCell>
                <mxCell id="-rqGWek1G1h2NRf4Z1o3-26" value="id_pro" style="text;strokeColor=none;fillColor=none;align=left;verticalAlign=middle;spacingLeft=4;spacingRight=4;overflow=hidden;points=[[0,0.5],[1,0.5]];portConstraint=eastwest;rotatable=0;fontFamily=Jetbrains Mono;fontSize=13;fontStyle=5;fontColor=#1A1A1A;strokeWidth=2;" parent="-rqGWek1G1h2NRf4Z1o3-25" vertex="1">
                    <mxGeometry y="30" width="150" height="30" as="geometry"/>
                </mxCell>
                <mxCell id="-rqGWek1G1h2NRf4Z1o3-29" value="Appareils" style="swimlane;fontStyle=1;childLayout=stackLayout;horizontal=1;startSize=30;horizontalStack=0;resizeParent=1;resizeParentMax=0;resizeLast=0;collapsible=1;marginBottom=0;strokeWidth=2;rounded=1;labelBackgroundColor=none;fontFamily=Jetbrains Mono;fontSize=15;fillColor=#1ba1e2;strokeColor=#006EAF;fontColor=#1A1A1A;" parent="1" vertex="1">
                    <mxGeometry x="134" y="680" width="150" height="120" as="geometry"/>
                </mxCell>
                <mxCell id="-rqGWek1G1h2NRf4Z1o3-30" value="id_appareil" style="text;strokeColor=none;fillColor=none;align=left;verticalAlign=middle;spacingLeft=4;spacingRight=4;overflow=hidden;points=[[0,0.5],[1,0.5]];portConstraint=eastwest;rotatable=0;fontFamily=Jetbrains Mono;fontSize=13;fontStyle=5;fontColor=#1A1A1A;" parent="-rqGWek1G1h2NRf4Z1o3-29" vertex="1">
                    <mxGeometry y="30" width="150" height="30" as="geometry"/>
                </mxCell>
                <mxCell id="-rqGWek1G1h2NRf4Z1o3-31" value="nom_appareil" style="text;strokeColor=none;fillColor=none;align=left;verticalAlign=middle;spacingLeft=4;spacingRight=4;overflow=hidden;points=[[0,0.5],[1,0.5]];portConstraint=eastwest;rotatable=0;fontFamily=Jetbrains Mono;fontSize=13;fontColor=#1A1A1A;" parent="-rqGWek1G1h2NRf4Z1o3-29" vertex="1">
                    <mxGeometry y="60" width="150" height="30" as="geometry"/>
                </mxCell>
                <mxCell id="-rqGWek1G1h2NRf4Z1o3-32" value="suptype_appareil" style="text;strokeColor=none;fillColor=none;align=left;verticalAlign=middle;spacingLeft=4;spacingRight=4;overflow=hidden;points=[[0,0.5],[1,0.5]];portConstraint=eastwest;rotatable=0;fontFamily=Jetbrains Mono;fontSize=13;fontColor=#1A1A1A;" parent="-rqGWek1G1h2NRf4Z1o3-29" vertex="1">
                    <mxGeometry y="90" width="150" height="30" as="geometry"/>
                </mxCell>
                <mxCell id="-rqGWek1G1h2NRf4Z1o3-33" value="Piece" style="swimlane;fontStyle=1;childLayout=stackLayout;horizontal=1;startSize=30;horizontalStack=0;resizeParent=1;resizeParentMax=0;resizeLast=0;collapsible=1;marginBottom=0;strokeWidth=2;rounded=1;labelBackgroundColor=none;fontFamily=Jetbrains Mono;fontSize=15;fillColor=#1ba1e2;strokeColor=#006EAF;fontColor=#1A1A1A;" parent="1" vertex="1">
                    <mxGeometry x="524" y="680" width="150" height="90" as="geometry"/>
                </mxCell>
                <mxCell id="-rqGWek1G1h2NRf4Z1o3-34" value="id_piece" style="text;strokeColor=none;fillColor=none;align=left;verticalAlign=middle;spacingLeft=4;spacingRight=4;overflow=hidden;points=[[0,0.5],[1,0.5]];portConstraint=eastwest;rotatable=0;fontFamily=Jetbrains Mono;fontSize=13;fontStyle=5;fontColor=#1A1A1A;" parent="-rqGWek1G1h2NRf4Z1o3-33" vertex="1">
                    <mxGeometry y="30" width="150" height="30" as="geometry"/>
                </mxCell>
                <mxCell id="-rqGWek1G1h2NRf4Z1o3-35" value="nom_piece" style="text;strokeColor=none;fillColor=none;align=left;verticalAlign=middle;spacingLeft=4;spacingRight=4;overflow=hidden;points=[[0,0.5],[1,0.5]];portConstraint=eastwest;rotatable=0;fontFamily=Jetbrains Mono;fontSize=13;fontColor=#1A1A1A;" parent="-rqGWek1G1h2NRf4Z1o3-33" vertex="1">
                    <mxGeometry y="60" width="150" height="30" as="geometry"/>
                </mxCell>
                <mxCell id="-rqGWek1G1h2NRf4Z1o3-41" style="rounded=0;orthogonalLoop=1;jettySize=auto;html=1;exitX=1;exitY=0.5;exitDx=0;exitDy=0;fontFamily=Jetbrains Mono;fontSize=24;fontColor=#1A1A1A;strokeWidth=2;endArrow=none;endFill=0;strokeColor=#1A1A1A;" parent="1" source="-rqGWek1G1h2NRf4Z1o3-37" target="-rqGWek1G1h2NRf4Z1o3-8" edge="1">
                    <mxGeometry relative="1" as="geometry"/>
                </mxCell>
                <mxCell id="-rqGWek1G1h2NRf4Z1o3-55" style="edgeStyle=none;rounded=0;orthogonalLoop=1;jettySize=auto;html=1;fontFamily=Jetbrains Mono;fontSize=14;fontColor=#1A1A1A;endArrow=none;endFill=0;strokeWidth=2;entryX=0.5;entryY=0;entryDx=0;entryDy=0;strokeColor=#1A1A1A;" parent="1" source="-rqGWek1G1h2NRf4Z1o3-53" target="-rqGWek1G1h2NRf4Z1o3-25" edge="1">
                    <mxGeometry relative="1" as="geometry">
                        <mxPoint x="585" y="480" as="targetPoint"/>
                    </mxGeometry>
                </mxCell>
                <mxCell id="-rqGWek1G1h2NRf4Z1o3-73" value="0,N" style="edgeLabel;html=1;align=center;verticalAlign=middle;resizable=0;points=[];fontSize=12;fontFamily=Jetbrains Mono;fontColor=#1A1A1A;rotation=0;labelBackgroundColor=none;" parent="-rqGWek1G1h2NRf4Z1o3-55" vertex="1" connectable="0">
                    <mxGeometry x="0.8374" y="-1" relative="1" as="geometry">
                        <mxPoint x="13" y="-5" as="offset"/>
                    </mxGeometry>
                </mxCell>
                <mxCell id="-rqGWek1G1h2NRf4Z1o3-53" value="&lt;font style=&quot;font-size: 14px;&quot;&gt;Inviter&lt;/font&gt;" style="ellipse;whiteSpace=wrap;html=1;labelBackgroundColor=none;fontFamily=Jetbrains Mono;fontSize=24;fontColor=#1A1A1A;strokeColor=#007FFF;strokeWidth=2;fillColor=none;" parent="1" vertex="1">
                    <mxGeometry x="537" y="137.5" width="130" height="65" as="geometry"/>
                </mxCell>
                <mxCell id="-rqGWek1G1h2NRf4Z1o3-76" value="" style="endArrow=none;html=1;rounded=0;fontFamily=Jetbrains Mono;fontSize=21;fontColor=#1A1A1A;strokeWidth=2;exitX=0.5;exitY=1;exitDx=0;exitDy=0;entryX=0.004;entryY=0.453;entryDx=0;entryDy=0;entryPerimeter=0;strokeColor=#1A1A1A;" parent="1" source="-rqGWek1G1h2NRf4Z1o3-37" target="-rqGWek1G1h2NRf4Z1o3-25" edge="1">
                    <mxGeometry relative="1" as="geometry">
                        <mxPoint x="317.17949999999996" y="363.29" as="sourcePoint"/>
                        <mxPoint x="525" y="387" as="targetPoint"/>
                    </mxGeometry>
                </mxCell>
                <mxCell id="-rqGWek1G1h2NRf4Z1o3-80" style="edgeStyle=none;rounded=0;orthogonalLoop=1;jettySize=auto;html=1;entryX=0;entryY=0.5;entryDx=0;entryDy=0;fontFamily=Jetbrains Mono;fontSize=21;fontColor=#1A1A1A;endArrow=none;endFill=0;strokeWidth=2;exitX=0.999;exitY=0.683;exitDx=0;exitDy=0;exitPerimeter=0;strokeColor=#1A1A1A;" parent="1" source="-rqGWek1G1h2NRf4Z1o3-2" target="-rqGWek1G1h2NRf4Z1o3-84" edge="1">
                    <mxGeometry relative="1" as="geometry">
                        <mxPoint x="575" y="102.49999999999989" as="sourcePoint"/>
                    </mxGeometry>
                </mxCell>
                <mxCell id="-rqGWek1G1h2NRf4Z1o3-81" value="&lt;font style=&quot;font-size: 12px;&quot;&gt;1,N&lt;/font&gt;" style="edgeLabel;html=1;align=center;verticalAlign=middle;resizable=0;points=[];fontSize=14;fontFamily=Jetbrains Mono;fontColor=#1A1A1A;labelBackgroundColor=none;" parent="-rqGWek1G1h2NRf4Z1o3-80" vertex="1" connectable="0">
                    <mxGeometry x="-0.7632" relative="1" as="geometry">
                        <mxPoint x="-17" y="-13" as="offset"/>
                    </mxGeometry>
                </mxCell>
                <mxCell id="-rqGWek1G1h2NRf4Z1o3-82" style="edgeStyle=none;rounded=0;orthogonalLoop=1;jettySize=auto;html=1;fontFamily=Jetbrains Mono;fontSize=14;fontColor=#1A1A1A;endArrow=none;endFill=0;strokeWidth=2;entryX=0.5;entryY=0;entryDx=0;entryDy=0;strokeColor=#1A1A1A;" parent="1" source="-rqGWek1G1h2NRf4Z1o3-84" target="-rqGWek1G1h2NRf4Z1o3-9" edge="1">
                    <mxGeometry relative="1" as="geometry">
                        <mxPoint x="806.25" y="412.5" as="targetPoint"/>
                    </mxGeometry>
                </mxCell>
                <mxCell id="-rqGWek1G1h2NRf4Z1o3-83" value="1,N" style="edgeLabel;html=1;align=center;verticalAlign=middle;resizable=0;points=[];fontSize=12;fontFamily=Jetbrains Mono;fontColor=#1A1A1A;rotation=0;labelBackgroundColor=none;" parent="-rqGWek1G1h2NRf4Z1o3-82" vertex="1" connectable="0">
                    <mxGeometry x="0.8374" y="-1" relative="1" as="geometry">
                        <mxPoint x="18" y="8" as="offset"/>
                    </mxGeometry>
                </mxCell>
                <mxCell id="-rqGWek1G1h2NRf4Z1o3-84" value="&lt;span style=&quot;font-size: 14px;&quot;&gt;Habiter&lt;/span&gt;" style="ellipse;whiteSpace=wrap;html=1;labelBackgroundColor=none;fontFamily=Jetbrains Mono;fontSize=24;fontColor=#1A1A1A;strokeColor=#007FFF;strokeWidth=2;fillColor=none;" parent="1" vertex="1">
                    <mxGeometry x="743.25" y="70" width="130" height="65" as="geometry"/>
                </mxCell>
                <mxCell id="-rqGWek1G1h2NRf4Z1o3-37" value="" style="triangle;whiteSpace=wrap;html=1;labelBackgroundColor=none;fontFamily=Jetbrains Mono;fontSize=13;fontColor=#1A1A1A;strokeColor=#007FFF;strokeWidth=2;rotation=-90;verticalAlign=middle;flipV=1;rounded=0;fillColor=none;" parent="1" vertex="1">
                    <mxGeometry x="268.5" y="330" width="54.5" height="58.5" as="geometry"/>
                </mxCell>
                <mxCell id="-rqGWek1G1h2NRf4Z1o3-49" style="edgeStyle=none;rounded=0;orthogonalLoop=1;jettySize=auto;html=1;exitX=0.5;exitY=1;exitDx=0;exitDy=0;fontFamily=Jetbrains Mono;fontSize=24;fontColor=#1A1A1A;endArrow=none;endFill=0;strokeWidth=1;" parent="1" edge="1">
                    <mxGeometry relative="1" as="geometry">
                        <mxPoint x="295.5" y="380" as="sourcePoint"/>
                        <mxPoint x="295.5" y="380" as="targetPoint"/>
                    </mxGeometry>
                </mxCell>
                <mxCell id="-rqGWek1G1h2NRf4Z1o3-85" value="X" style="text;html=1;strokeColor=none;fillColor=none;align=center;verticalAlign=middle;whiteSpace=wrap;rounded=0;labelBackgroundColor=none;fontFamily=Jetbrains Mono;fontSize=18;fontColor=#1A1A1A;rotation=0;" parent="1" vertex="1">
                    <mxGeometry x="281.5" y="360" width="29.75" height="22" as="geometry"/>
                </mxCell>
                <mxCell id="-rqGWek1G1h2NRf4Z1o3-87" style="edgeStyle=none;rounded=0;orthogonalLoop=1;jettySize=auto;html=1;entryX=0.5;entryY=0;entryDx=0;entryDy=0;fontFamily=Jetbrains Mono;fontSize=21;fontColor=#1A1A1A;endArrow=none;endFill=0;strokeWidth=2;exitX=0.516;exitY=0.967;exitDx=0;exitDy=0;exitPerimeter=0;strokeColor=#1A1A1A;" parent="1" source="-rqGWek1G1h2NRf4Z1o3-26" target="-rqGWek1G1h2NRf4Z1o3-91" edge="1">
                    <mxGeometry relative="1" as="geometry">
                        <mxPoint x="215.00000000000003" y="540.49" as="sourcePoint"/>
                    </mxGeometry>
                </mxCell>
                <mxCell id="-rqGWek1G1h2NRf4Z1o3-88" value="1,N" style="edgeLabel;html=1;align=center;verticalAlign=middle;resizable=0;points=[];fontSize=12;fontFamily=Jetbrains Mono;fontColor=#1A1A1A;labelBackgroundColor=none;" parent="-rqGWek1G1h2NRf4Z1o3-87" vertex="1" connectable="0">
                    <mxGeometry x="-0.7632" relative="1" as="geometry">
                        <mxPoint x="16" as="offset"/>
                    </mxGeometry>
                </mxCell>
                <mxCell id="-rqGWek1G1h2NRf4Z1o3-89" style="edgeStyle=none;rounded=0;orthogonalLoop=1;jettySize=auto;html=1;fontFamily=Jetbrains Mono;fontSize=14;fontColor=#1A1A1A;endArrow=none;endFill=0;strokeWidth=2;entryX=0;entryY=0.5;entryDx=0;entryDy=0;exitX=1;exitY=0.5;exitDx=0;exitDy=0;strokeColor=#1A1A1A;" parent="1" source="-rqGWek1G1h2NRf4Z1o3-91" target="-rqGWek1G1h2NRf4Z1o3-11" edge="1">
                    <mxGeometry relative="1" as="geometry">
                        <mxPoint x="652.4" y="920" as="targetPoint"/>
                    </mxGeometry>
                </mxCell>
                <mxCell id="-rqGWek1G1h2NRf4Z1o3-90" value="1,1" style="edgeLabel;html=1;align=center;verticalAlign=middle;resizable=0;points=[];fontSize=11;fontFamily=Jetbrains Mono;fontColor=#1A1A1A;rotation=0;labelBackgroundColor=none;" parent="-rqGWek1G1h2NRf4Z1o3-89" vertex="1" connectable="0">
                    <mxGeometry x="0.8374" y="-1" relative="1" as="geometry">
                        <mxPoint x="-16" y="-9" as="offset"/>
                    </mxGeometry>
                </mxCell>
                <mxCell id="-rqGWek1G1h2NRf4Z1o3-91" value="&lt;span style=&quot;font-size: 14px;&quot;&gt;Avoir&lt;/span&gt;" style="ellipse;whiteSpace=wrap;html=1;labelBackgroundColor=none;fontFamily=Jetbrains Mono;fontSize=24;fontColor=#1A1A1A;strokeColor=#007FFF;strokeWidth=2;fillColor=none;" parent="1" vertex="1">
                    <mxGeometry x="547.6800000000001" y="512" width="112.65" height="65" as="geometry"/>
                </mxCell>
                <mxCell id="-rqGWek1G1h2NRf4Z1o3-92" style="edgeStyle=none;rounded=0;orthogonalLoop=1;jettySize=auto;html=1;entryX=0;entryY=0.5;entryDx=0;entryDy=0;fontFamily=Jetbrains Mono;fontSize=21;fontColor=#1A1A1A;endArrow=none;endFill=0;strokeWidth=2;exitX=1;exitY=0.5;exitDx=0;exitDy=0;strokeColor=#1A1A1A;" parent="1" source="-rqGWek1G1h2NRf4Z1o3-34" target="-rqGWek1G1h2NRf4Z1o3-96" edge="1">
                    <mxGeometry relative="1" as="geometry">
                        <mxPoint x="352.68" y="700.49" as="sourcePoint"/>
                    </mxGeometry>
                </mxCell>
                <mxCell id="-rqGWek1G1h2NRf4Z1o3-93" value="1,1" style="edgeLabel;html=1;align=center;verticalAlign=middle;resizable=0;points=[];fontSize=12;fontFamily=Jetbrains Mono;fontColor=#1A1A1A;labelBackgroundColor=none;" parent="-rqGWek1G1h2NRf4Z1o3-92" vertex="1" connectable="0">
                    <mxGeometry x="-0.7632" relative="1" as="geometry">
                        <mxPoint x="10" y="-14" as="offset"/>
                    </mxGeometry>
                </mxCell>
                <mxCell id="-rqGWek1G1h2NRf4Z1o3-94" style="edgeStyle=none;rounded=0;orthogonalLoop=1;jettySize=auto;html=1;fontFamily=Jetbrains Mono;fontSize=14;fontColor=#1A1A1A;endArrow=none;endFill=0;strokeWidth=2;entryX=0.476;entryY=1.021;entryDx=0;entryDy=0;entryPerimeter=0;strokeColor=#1A1A1A;" parent="1" source="-rqGWek1G1h2NRf4Z1o3-96" target="-rqGWek1G1h2NRf4Z1o3-12" edge="1">
                    <mxGeometry relative="1" as="geometry">
                        <mxPoint x="795" y="640" as="targetPoint"/>
                    </mxGeometry>
                </mxCell>
                <mxCell id="-rqGWek1G1h2NRf4Z1o3-95" value="1,N" style="edgeLabel;html=1;align=center;verticalAlign=middle;resizable=0;points=[];fontSize=12;fontFamily=Jetbrains Mono;fontColor=#1A1A1A;rotation=0;labelBackgroundColor=none;" parent="-rqGWek1G1h2NRf4Z1o3-94" vertex="1" connectable="0">
                    <mxGeometry x="0.8374" y="-1" relative="1" as="geometry">
                        <mxPoint x="14" y="9" as="offset"/>
                    </mxGeometry>
                </mxCell>
                <mxCell id="-rqGWek1G1h2NRf4Z1o3-96" value="&lt;span style=&quot;font-size: 14px;&quot;&gt;Contenir&lt;br&gt;&lt;/span&gt;" style="ellipse;whiteSpace=wrap;html=1;labelBackgroundColor=none;fontFamily=Jetbrains Mono;fontSize=24;fontColor=#1A1A1A;strokeColor=#007FFF;strokeWidth=2;fillColor=none;" parent="1" vertex="1">
                    <mxGeometry x="739.25" y="692.5" width="130" height="65" as="geometry"/>
                </mxCell>
                <mxCell id="-rqGWek1G1h2NRf4Z1o3-97" style="edgeStyle=none;rounded=0;orthogonalLoop=1;jettySize=auto;html=1;entryX=0;entryY=0.5;entryDx=0;entryDy=0;fontFamily=Jetbrains Mono;fontSize=21;fontColor=#1A1A1A;endArrow=none;endFill=0;strokeWidth=2;exitX=1;exitY=0.5;exitDx=0;exitDy=0;strokeColor=#1A1A1A;" parent="1" source="-rqGWek1G1h2NRf4Z1o3-30" target="-rqGWek1G1h2NRf4Z1o3-101" edge="1">
                    <mxGeometry relative="1" as="geometry">
                        <mxPoint x="255" y="904.37" as="sourcePoint"/>
                    </mxGeometry>
                </mxCell>
                <mxCell id="-rqGWek1G1h2NRf4Z1o3-98" value="1,1" style="edgeLabel;html=1;align=center;verticalAlign=middle;resizable=0;points=[];fontSize=12;fontFamily=Jetbrains Mono;fontColor=#1A1A1A;labelBackgroundColor=none;" parent="-rqGWek1G1h2NRf4Z1o3-97" vertex="1" connectable="0">
                    <mxGeometry x="-0.7632" relative="1" as="geometry">
                        <mxPoint x="10" y="-14" as="offset"/>
                    </mxGeometry>
                </mxCell>
                <mxCell id="-rqGWek1G1h2NRf4Z1o3-99" style="edgeStyle=none;rounded=0;orthogonalLoop=1;jettySize=auto;html=1;fontFamily=Jetbrains Mono;fontSize=14;fontColor=#1A1A1A;endArrow=none;endFill=0;strokeWidth=2;entryX=0;entryY=0.5;entryDx=0;entryDy=0;strokeColor=#1A1A1A;" parent="1" source="-rqGWek1G1h2NRf4Z1o3-101" target="-rqGWek1G1h2NRf4Z1o3-34" edge="1">
                    <mxGeometry relative="1" as="geometry">
                        <mxPoint x="416.64999999999986" y="769.9999999999999" as="targetPoint"/>
                    </mxGeometry>
                </mxCell>
                <mxCell id="-rqGWek1G1h2NRf4Z1o3-100" value="1,N" style="edgeLabel;html=1;align=center;verticalAlign=middle;resizable=0;points=[];fontSize=12;fontFamily=Jetbrains Mono;fontColor=#1A1A1A;rotation=0;labelBackgroundColor=none;" parent="-rqGWek1G1h2NRf4Z1o3-99" vertex="1" connectable="0">
                    <mxGeometry x="0.8374" y="-1" relative="1" as="geometry">
                        <mxPoint x="-17" y="-12" as="offset"/>
                    </mxGeometry>
                </mxCell>
                <mxCell id="-rqGWek1G1h2NRf4Z1o3-101" value="&lt;span style=&quot;font-size: 14px;&quot;&gt;Se Trouve&lt;br&gt;&lt;/span&gt;" style="ellipse;whiteSpace=wrap;html=1;labelBackgroundColor=none;fontFamily=Jetbrains Mono;fontSize=24;fontColor=#1A1A1A;strokeColor=#007FFF;strokeWidth=2;fillColor=none;" parent="1" vertex="1">
                    <mxGeometry x="345" y="692.5" width="130" height="65" as="geometry"/>
                </mxCell>
            </root>
        </mxGraphModel>
    </diagram>
</mxfile>